<svg viewBox="0 0 100 100" fill="none" xmlns="http://www.w3.org/2000/svg">
<path d="M36.6479 45.9652L39.5479 47.8651L40.1479 46.7652L46.448 48.1651L45.1479 50.4652L50.448 52.0651L46.6479 57.4652L42.848 56.2652L40.2479 66.4652L35.2479 73.5651L33.2479 68.6651L37.0479 53.7652L23.5479 44.7652L22.848 42.9652L36.848 46.0651H36.6479V45.9652ZM68.1479 57.3651L75.448 64.2652L72.848 65.3651L62.948 62.3651L66.7479 56.9652L68.1479 57.4652V57.3651ZM58.0479 27.8651L54.848 33.4652L48.5479 32.0651L53.948 22.7652L58.348 21.0651V27.8651H58.0479ZM62.948 7.46516C65.848 6.26516 69.0479 7.46512 70.2479 10.1651L72.1479 14.9652L89.2479 56.1651L92.348 63.8651C93.448 66.5651 91.948 69.7652 89.048 70.9652L86.1479 72.1651L45.948 88.2652L36.1479 92.1651C33.1479 93.3651 29.948 92.1652 28.848 89.4652L24.6479 79.0651L11.1479 45.1651L7.348 35.3651C6.248 32.6651 7.848 29.4652 10.848 28.2652L16.448 25.9652L58.7479 9.26515L62.948 7.56514V7.46516ZM15.1479 36.2652L33.7479 83.2652L60.2479 46.3651L15.0479 36.3651L15.1479 36.2652ZM41.848 83.0651L84.1479 65.9652L66.2479 49.0651L41.848 82.9652V83.0651ZM20.448 30.8651L62.5479 40.1651L62.948 14.0651L20.6479 30.7652H20.448V30.8651ZM69.2479 42.8651L81.048 53.8651L69.448 25.8651L69.2479 42.7652V42.8651Z" fill="currentColor"/>
</svg>
